<svg width="51" height="50" viewBox="0 0 51 50" fill="none" xmlns="http://www.w3.org/2000/svg">
<path d="M46.471 44.396C46.471 42.402 42.833 36.829 42.833 36.829C42.833 36.829 39.14 42.402 39.14 44.396C39.14 46.386 40.782 48 42.806 48C44.829 48 46.471 46.386 46.471 44.396ZM20.166 13.171H12.835V5.944H14.834V2H1.5V5.944H3.5V17.114C3.5 20.018 5.888 22.371 8.833 22.371H20.166V24.343H24.167V11.201H20.166V13.171ZM47.498 29.599V18.429C47.498 15.526 45.111 13.172 42.169 13.172H30.834V11.202H26.833V24.345H30.834V22.372H38.166V29.599H36.169V33.543H49.5V29.599H47.498Z" fill="#228BE6"/>
</svg>
