<svg width="50" height="49" viewBox="0 0 50 49" fill="none" xmlns="http://www.w3.org/2000/svg">
<g clip-path="url(#clip0_5_817)">
<path d="M25 0C26.0575 0 26.915 0.8575 26.915 1.915V23.0825H48.085C48.5932 23.0825 49.0806 23.2844 49.44 23.6438C49.7994 24.0031 50.0013 24.4905 50.0013 24.9988C50.0013 25.507 49.7994 25.9944 49.44 26.3537C49.0806 26.7131 48.5932 26.915 48.085 26.915H26.915V48.085C26.915 48.5929 26.7132 49.08 26.3541 49.4391C25.995 49.7982 25.5079 50 25 50C24.4921 50 24.005 49.7982 23.6459 49.4391C23.2868 49.08 23.085 48.5929 23.085 48.085L23.0825 26.915H1.915C1.40711 26.915 0.920023 26.7132 0.56089 26.3541C0.201758 25.995 0 25.5079 0 25C0 24.4921 0.201758 24.005 0.56089 23.6459C0.920023 23.2868 1.40711 23.085 1.915 23.085L23.0825 23.0825V1.915C23.0838 1.40708 23.2863 0.920386 23.6457 0.561468C24.0051 0.20255 24.4921 0.00065963 25 0Z" fill="black"/>
</g>
<defs>
<clipPath id="clip0_5_817">
<rect width="50" height="50" fill="white"/>
</clipPath>
</defs>
</svg>
