<svg width="51" height="50" viewBox="0 0 51 50" fill="none" xmlns="http://www.w3.org/2000/svg">
<rect width="50" height="50" transform="translate(0.5)" fill="white"/>
<path d="M41.5 14H36.5V2.919C36.5 1.859 35.605 1 34.5 1C33.395 1 32.5 1.859 32.5 2.919V14H16.5V2.919C16.5 1.859 15.605 1 14.499 1C13.394 1 12.5 1.859 12.5 2.919V14H7.5C6.947 14 6.5 14.869 6.5 15.399V20.2C6.5 25.959 16.5 32.646 16.5 41.896V45H20.5V49H28.5V45H32.5V41.896C32.5 32.646 42.5 25.958 42.5 20.2V15.399C42.5 14.869 42.053 14 41.5 14ZM23.407 30.388C23.472 30.178 23.34 30 23.111 30H19.226C18.996 30 18.931 29.87 19.077 29.701C19.077 29.701 27.082 19.542 27.238 19.346C27.356 19.16 27.486 19.225 27.445 19.439C27.383 19.71 25.674 26.641 25.674 26.641C25.591 26.845 25.711 27 25.938 27H29.825C30.054 27 30.127 27.154 29.987 27.328C29.987 27.328 21.97 37.73 21.826 37.904C21.681 38.078 21.547 38.025 21.62 37.729L23.407 30.388Z" fill="#FFD600"/>
</svg>
