<svg width="51" height="50" viewBox="0 0 51 50" fill="none" xmlns="http://www.w3.org/2000/svg">
<rect width="50" height="50" transform="translate(0.5)" fill="white"/>
<path d="M45.4167 32.9375C45.4375 32.625 45.5 32.3125 45.5 32V33.0417L45.4167 32.9375ZM24.6667 32C24.6667 33.4792 24.9792 34.8958 25.5417 36.1667H14.25V38.25C14.25 39.3958 13.3125 40.3333 12.1667 40.3333H10.0833C8.9375 40.3333 8 39.3958 8 38.25V21.5833L12.3333 9.08333C12.75 7.875 13.9167 7 15.2917 7H38.2083C39.5833 7 40.75 7.875 41.1667 9.08333L45.5 21.5833V32C45.5 26.25 40.8333 21.5833 35.0833 21.5833C29.3333 21.5833 24.6667 26.25 24.6667 32ZM18.4167 26.7917C18.4167 25.0625 17.0208 23.6667 15.2917 23.6667C13.5625 23.6667 12.1667 25.0625 12.1667 26.7917C12.1667 28.5208 13.5625 29.9167 15.2917 29.9167C17.0208 29.9167 18.4167 28.5208 18.4167 26.7917ZM41.3333 19.5L38.2083 10.125H15.2917L12.1667 19.5H41.3333ZM49.3958 42.8125L40.8333 34.25C41.6875 32.0833 41.2083 29.5417 39.4167 27.7708C37.5417 25.875 34.7292 25.5 32.4583 26.5417L36.5 30.5833L33.6875 33.4167L29.5417 29.3542C28.4167 31.625 28.9375 34.4375 30.7708 36.3333C31.5982 37.1774 32.6543 37.7612 33.8092 38.0129C34.964 38.2646 36.1672 38.1732 37.2708 37.75L45.8333 46.2917C46.2083 46.6875 46.7708 46.6875 47.1458 46.2917L49.3125 44.1458C49.7708 43.7708 49.7708 43.1042 49.3958 42.8125Z" fill="#00AB11"/>
</svg>
