<svg width="51" height="50" viewBox="0 0 51 50" fill="none" xmlns="http://www.w3.org/2000/svg">
<rect width="50" height="50" transform="translate(0.5)" fill="white"/>
<path d="M25.8333 8C23.8995 8 22.0448 8.76823 20.6773 10.1357C19.3099 11.5031 18.5417 13.3578 18.5417 15.2917H22.7083C22.7083 14.4629 23.0376 13.668 23.6236 13.082C24.2097 12.4959 25.0045 12.1667 25.8333 12.1667C26.6621 12.1667 27.457 12.4959 28.043 13.082C28.6291 13.668 28.9583 14.4629 28.9583 15.2917C28.9583 16.1205 28.6291 16.9153 28.043 17.5014C27.457 18.0874 26.6621 18.4167 25.8333 18.4167C24.6875 18.4167 23.75 19.3542 23.75 20.5V24.1458L5.83333 37.5833C5.48353 37.8457 5.22514 38.2114 5.09476 38.6288C4.96439 39.0462 4.96864 39.494 5.10691 39.9088C5.24518 40.3236 5.51047 40.6844 5.86519 40.9401C6.21991 41.1958 6.64608 41.3333 7.08333 41.3333H44.5833C45.0206 41.3333 45.4468 41.1958 45.8015 40.9401C46.1562 40.6844 46.4215 40.3236 46.5598 39.9088C46.698 39.494 46.7023 39.0462 46.5719 38.6288C46.4415 38.2114 46.1831 37.8457 45.8333 37.5833L27.9167 24.1458V22.2708C29.4201 21.8226 30.7388 20.9014 31.6771 19.6442C32.6154 18.3869 33.1232 16.8605 33.125 15.2917C33.125 13.3578 32.3568 11.5031 30.9893 10.1357C29.6219 8.76823 27.7672 8 25.8333 8ZM25.8333 27.7917L38.3333 37.1667H13.3333L25.8333 27.7917Z" fill="#E4A951"/>
</svg>
