<svg width="51" height="50" viewBox="0 0 51 50" fill="none" xmlns="http://www.w3.org/2000/svg">
<rect width="50" height="50" transform="translate(0.5)" fill="white"/>
<path d="M24.6683 2C28.7153 2.00026 32.6241 3.47267 35.6654 6.14257C38.7068 8.81247 40.6731 12.4975 41.1975 16.5104L45.885 23.8833C46.1933 24.3687 46.1308 25.0917 45.4163 25.4L41.335 27.1458V33.25C41.335 34.3551 40.896 35.4149 40.1146 36.1963C39.3332 36.9777 38.2734 37.4167 37.1683 37.4167H33.0038L33.0017 43.6667H14.2517V35.9708C14.2517 33.5125 13.3433 31.1854 11.6579 29.0854C9.69481 26.6343 8.46414 23.6784 8.10771 20.5583C7.75128 17.4383 8.2836 14.281 9.64333 11.4502C11.0031 8.61951 13.1349 6.23054 15.7932 4.55857C18.4514 2.88661 21.528 1.99968 24.6683 2ZM24.6683 12.4167C24.1158 12.4167 23.5859 12.6362 23.1952 13.0269C22.8045 13.4176 22.585 13.9475 22.585 14.5V16.5812L20.5017 16.5833C19.9491 16.5833 19.4192 16.8028 19.0285 17.1935C18.6378 17.5842 18.4183 18.1141 18.4183 18.6667C18.4183 19.2192 18.6378 19.7491 19.0285 20.1398C19.4192 20.5305 19.9491 20.75 20.5017 20.75L22.585 20.7479V22.8333C22.585 23.3859 22.8045 23.9158 23.1952 24.3065C23.5859 24.6972 24.1158 24.9167 24.6683 24.9167C25.2209 24.9167 25.7508 24.6972 26.1415 24.3065C26.5322 23.9158 26.7517 23.3859 26.7517 22.8333V20.75H28.835C29.3875 20.75 29.9175 20.5305 30.3082 20.1398C30.6989 19.7491 30.9183 19.2192 30.9183 18.6667C30.9183 18.1141 30.6989 17.5842 30.3082 17.1935C29.9175 16.8028 29.3875 16.5833 28.835 16.5833H26.7517V14.5C26.7517 13.9475 26.5322 13.4176 26.1415 13.0269C25.7508 12.6362 25.2209 12.4167 24.6683 12.4167Z" fill="#E50089"/>
</svg>
