<svg width="51" height="50" viewBox="0 0 51 50" fill="none" xmlns="http://www.w3.org/2000/svg">
<g clip-path="url(#clip0_5_744)">
<rect width="50" height="50" transform="translate(0.5)" fill="white"/>
<path d="M31.6667 46.0476V52M18.3333 46.0476V52M31.6667 7.95238V2M18.3333 7.95238V2M8.33333 27H0M50 27H41.6667M8.33333 13.9048H0M50 13.9048H41.6667M8.33333 40.0952H0M50 40.0952H41.6667M8.33333 44.619V9.38095C8.33333 9.00207 8.54405 8.63871 8.91912 8.3708C9.29419 8.10289 9.8029 7.95238 10.3333 7.95238H39.6667C39.9293 7.95238 40.1894 7.98933 40.432 8.06112C40.6747 8.13292 40.8952 8.23814 41.0809 8.3708C41.2666 8.50346 41.4139 8.66094 41.5144 8.83426C41.6149 9.00758 41.6667 9.19335 41.6667 9.38095V44.619C41.6667 44.8066 41.6149 44.9924 41.5144 45.1657C41.4139 45.3391 41.2666 45.4965 41.0809 45.6292C40.8952 45.7619 40.6747 45.8671 40.432 45.9389C40.1894 46.0107 39.9293 46.0476 39.6667 46.0476H10.3333C9.8029 46.0476 9.29419 45.8971 8.91912 45.6292C8.54405 45.3613 8.33333 44.9979 8.33333 44.619Z" stroke="#FF0000" stroke-width="1.5" stroke-linecap="round" stroke-linejoin="round"/>
</g>
<defs>
<clipPath id="clip0_5_744">
<rect width="50" height="50" fill="white" transform="translate(0.5)"/>
</clipPath>
</defs>
</svg>
