<svg width="50" height="50" viewBox="0 0 50 50" fill="none" xmlns="http://www.w3.org/2000/svg">
<path d="M45.832 6.00781C47.0596 6.00781 48.0547 5.0127 48.0547 3.78516C48.0547 2.55762 47.0596 1.5625 45.832 1.5625C44.6045 1.5625 43.6094 2.55762 43.6094 3.78516C43.6094 5.0127 44.6045 6.00781 45.832 6.00781Z" fill="#F44336"/>
<path d="M31.2852 30.6172C31.2852 30.6172 35 35.6172 35 37.5898C35 39.5625 33.3984 41.1641 31.4258 41.1641C29.7422 41.1641 8.69141 41.1211 6.36719 41.1211C4.04297 41.1211 2.72656 42.4844 2.72656 42.4844" stroke="#84B0C1" stroke-width="1.91914" stroke-miterlimit="10" stroke-linecap="round"/>
<path d="M22.9805 30.1289C22.9805 30.1289 27.1211 35.6172 27.1211 37.5938C27.1211 39.5703 25.3086 41.1563 23.3359 41.1563" stroke="#84B0C1" stroke-width="1.91914" stroke-miterlimit="10" stroke-linecap="round"/>
<path d="M32.332 33.8789C31.5469 32.5352 30.9102 31.7539 29.8867 30.3555C29.8867 30.3555 30.1562 30.4141 30.8828 30.4141C31.6094 30.4141 32.1328 30.1836 32.1328 30.1836C33.1641 31.6406 33.4727 32.0117 34.0234 32.9883C34.0234 32.9883 34.0039 33.625 33.4961 33.9609C32.9883 34.2969 32.332 33.8789 32.332 33.8789ZM24.4375 33.9453C23.3477 32.2813 22.4766 31.0117 22.4766 31.0117L24.8203 31.0664C24.8203 31.0664 25.8711 32.4766 26.4727 33.5938C26.4727 33.5938 26.5625 34.1016 25.8906 34.3672C25.2187 34.625 24.4375 33.9453 24.4375 33.9453Z" fill="#2F7889"/>
<path d="M31.293 30.7187L3.97266 28.8984C3.88281 28.8906 3.81641 28.8203 3.81641 28.7304V13.4765C3.81641 13.332 3.92969 13.2109 4.07422 13.2031L38.6953 10.9999C39.0312 10.9765 39.2734 11.3124 39.1523 11.6249L31.8008 30.3984C31.7187 30.6054 31.5156 30.7343 31.293 30.7187Z" stroke="#84B0C1" stroke-width="1.91914" stroke-miterlimit="10"/>
<path d="M9.24609 12.9141L8.52734 29.1016M15.4453 12.4922L13.1992 29.4492M21.6484 12.0703L17.8711 29.7969M27.8516 11.6484L22.543 30.1445M34.0508 11.2266L27.2148 30.4922M3.23828 18.9375L36.6602 17.7891M3.54687 24.2617H34.5625" stroke="#84B0C1" stroke-width="1.15156" stroke-miterlimit="10"/>
<path d="M31.4102 48.4375C33.0368 48.4375 34.3555 47.1188 34.3555 45.4922C34.3555 43.8655 33.0368 42.5469 31.4102 42.5469C29.7835 42.5469 28.4648 43.8655 28.4648 45.4922C28.4648 47.1188 29.7835 48.4375 31.4102 48.4375Z" fill="#424242"/>
<path d="M29.5117 41.4375H33.3125L32.4062 45.3789C32.3203 45.9922 31.9023 46.4375 31.4141 46.4375C30.9258 46.4375 30.5039 45.9922 30.4219 45.3789L29.5117 41.4375Z" fill="#84B0C1"/>
<path d="M32.0197 45.5194C31.9493 45.7772 31.8204 46.0702 31.5587 46.1366C30.6134 46.3788 30.4806 44.0546 30.9572 43.6561C31.2462 43.4139 31.8478 43.371 32.1017 43.6718C32.4259 44.0546 32.1407 45.0936 32.0197 45.5194Z" fill="#A8E3F0"/>
<path d="M31.4571 42.832C30.8282 42.832 30.3829 42.4609 30.1641 42.2305C30.1493 42.2152 30.1391 42.196 30.135 42.1751C30.1308 42.1542 30.1327 42.1325 30.1406 42.1127C30.1484 42.0929 30.1618 42.0758 30.1792 42.0634C30.1965 42.051 30.217 42.0439 30.2383 42.043C30.6446 42.0234 31.0508 42.0273 31.4532 42.0156C31.8594 42.0273 32.2657 42.0234 32.668 42.043C32.7618 42.0469 32.8086 42.1641 32.7422 42.2305C32.5352 42.4609 32.086 42.832 31.4571 42.832Z" fill="#2F7889"/>
<path d="M30.4845 46.4922C30.7384 46.7851 31.1446 46.9219 31.5314 46.875C31.9142 46.8281 32.2657 46.6015 32.4962 46.289C32.629 46.1054 32.7228 45.8945 32.8751 45.7265C33.0275 45.5586 33.2696 45.4414 33.4806 45.5273C33.7775 45.6445 33.8165 46.0586 33.715 46.3594C33.6165 46.6598 33.459 46.9376 33.2517 47.1764C33.0444 47.4152 32.7916 47.6102 32.5079 47.75C32.1212 47.9414 31.5821 48.0195 31.1525 47.9765C30.3282 47.8906 29.4415 47.1445 29.1525 46.3789C28.9962 45.9687 28.8595 45.1445 29.6759 45.332C30.0548 45.4219 30.1798 46.1406 30.4845 46.4922Z" fill="#757575"/>
<path d="M38.9922 11.9961L40.793 7.59375C41.5273 5.79688 42.0703 5.39453 43.1602 4.90625L45.7109 3.87109" stroke="#84B0C1" stroke-width="1.91914" stroke-miterlimit="10" stroke-linecap="round"/>
<path d="M7.65625 48.4375C9.2829 48.4375 10.6016 47.1188 10.6016 45.4922C10.6016 43.8655 9.2829 42.5469 7.65625 42.5469C6.0296 42.5469 4.71094 43.8655 4.71094 45.4922C4.71094 47.1188 6.0296 48.4375 7.65625 48.4375Z" fill="#424242"/>
<path d="M5.75391 41.4375H9.55469L8.64844 45.3789C8.5625 45.9922 8.14453 46.4375 7.65625 46.4375C7.16797 46.4375 6.74609 45.9922 6.66406 45.3789L5.75391 41.4375Z" fill="#84B0C1"/>
<path d="M8.26574 45.5194C8.19543 45.7772 8.06653 46.0702 7.80481 46.1366C6.85949 46.3788 6.72668 44.0546 7.20324 43.6561C7.49231 43.4139 8.09387 43.371 8.34778 43.6718C8.672 44.0546 8.38293 45.0936 8.26574 45.5194Z" fill="#A8E3F0"/>
<path d="M7.70317 42.832C7.07426 42.832 6.62895 42.4609 6.4102 42.2305C6.39535 42.2152 6.38522 42.196 6.38105 42.1751C6.37687 42.1542 6.37883 42.1325 6.38667 42.1127C6.39451 42.0929 6.4079 42.0758 6.42525 42.0634C6.44259 42.051 6.46314 42.0439 6.48442 42.043C6.89067 42.0234 7.29692 42.0273 7.69926 42.0156C8.10551 42.0273 8.51176 42.0234 8.91411 42.043C9.00786 42.0469 9.05473 42.1641 8.98832 42.2305C8.77739 42.4609 8.32817 42.832 7.70317 42.832Z" fill="#2F7889"/>
<path d="M6.72668 46.4922C6.98058 46.7851 7.38683 46.9219 7.77355 46.875C8.15636 46.8281 8.50793 46.6015 8.7384 46.289C8.87121 46.1054 8.96496 45.8945 9.1173 45.7265C9.26965 45.5586 9.51183 45.4414 9.72277 45.5273C10.0196 45.6445 10.0587 46.0586 9.95715 46.3594C9.85866 46.6598 9.70116 46.9376 9.49389 47.1764C9.28662 47.4152 9.03375 47.6102 8.75011 47.75C8.3634 47.9414 7.82433 48.0195 7.39465 47.9765C6.57043 47.8906 5.68371 47.1445 5.39465 46.3789C5.2384 45.9687 5.10168 45.1445 5.91808 45.332C6.29699 45.4219 6.42199 46.1406 6.72668 46.4922Z" fill="#757575"/>
</svg>
